<svg xmlns="http://www.w3.org/2000/svg" width="137" height="69" viewBox="0 0 137 69" fill="none">
<path fill-rule="evenodd" clip-rule="evenodd" d="M60.1986 41.211H79.3758C79.522 41.2204 79.6652 41.1666 79.7691 41.0633C79.873 40.96 79.9275 40.8171 79.919 40.6709V38.3474C79.9275 38.2011 79.8729 38.0582 79.7691 37.9549C79.6652 37.8516 79.522 37.7977 79.3758 37.807H65.0004V29.1623H77.2067C77.3527 29.1714 77.4956 29.1175 77.5991 29.0142C77.7026 28.9109 77.7569 28.7682 77.7481 28.6222V26.2993C77.757 26.1532 77.7028 26.0103 77.5992 25.9069C77.4957 25.8034 77.3528 25.7493 77.2067 25.7583H65.0004V17.5995H78.8332C78.9792 17.6089 79.1222 17.5551 79.226 17.452C79.3297 17.3488 79.3843 17.2061 79.3758 17.06V14.7357C79.3842 14.5896 79.3296 14.447 79.2259 14.3438C79.1221 14.2407 78.9792 14.1869 78.8332 14.1961H71.4546L74.4397 11.6023C74.7119 11.3861 74.7119 11.1157 74.4397 10.8463L72.9203 9.38725C72.8242 9.25956 72.6737 9.18447 72.5139 9.18447C72.3541 9.18447 72.2035 9.25956 72.1074 9.38725L67.6067 14.1961H60.1986C60.0525 14.1869 59.9095 14.2406 59.8057 14.3438C59.702 14.4469 59.6473 14.5896 59.6557 14.7357V40.6709C59.6471 40.8171 59.7016 40.96 59.8055 41.0633C59.9093 41.1666 60.0524 41.2204 60.1986 41.211ZM84.3387 41.211H88.5976C88.7438 41.2203 88.8868 41.1665 88.9906 41.0632C89.0943 40.9599 89.1488 40.817 89.1402 40.6709V31.648H90.4969C93.4432 31.648 95.0069 33.4418 98.3439 37.2698C99.4045 38.4864 100.644 39.9085 102.164 41.5438C106.501 46.2142 110.661 48.8795 117.368 48.8795C121.3 48.8795 124.276 47.6738 126.243 46.3682C126.545 46.1673 126.595 46.0169 126.444 45.7151L126.243 45.3129C126.205 45.1952 126.117 45.1003 126.003 45.0529C125.888 45.0056 125.759 45.0107 125.649 45.0669C124.098 45.5692 122.481 45.8348 120.851 45.8549C114.817 45.8549 110.735 43.5268 105.195 37.6645C104.855 37.306 104.535 36.9691 104.235 36.652C101.018 33.2577 99.9587 32.1393 98.1721 31.1012C102.744 30.6634 106.772 27.7209 106.772 23.0034C106.772 17.708 101.997 14.1961 95.433 14.1961H84.3387C84.1926 14.1869 84.0496 14.2406 83.9458 14.3438C83.8419 14.4469 83.7872 14.5896 83.7955 14.7357V40.6709C83.787 40.8171 83.8416 40.96 83.9455 41.0632C84.0493 41.1665 84.1925 41.2203 84.3387 41.211ZM89.1402 17.4924H95.2832C98.8633 17.4924 101.359 19.5994 101.359 22.9486C101.359 26.3532 98.9174 28.5138 95.2832 28.5138H89.1402V17.4924ZM109.414 38.9789C109.685 39.249 110.065 39.249 110.227 38.8708L113.128 32.2418H125.561L129.23 40.6173C129.447 41.049 129.609 41.211 130.043 41.211H134.792C134.937 41.2228 135.076 41.1478 135.147 41.0195C135.217 40.8913 135.205 40.7338 135.117 40.6173L131.318 32.2418H135.957C136.102 32.2511 136.245 32.1974 136.349 32.0943C136.453 31.9912 136.508 31.8486 136.499 31.7025V29.4869C136.508 29.3407 136.453 29.1979 136.349 29.0946C136.246 28.9913 136.103 28.9375 135.957 28.9468H129.823L123.4 14.7908C123.182 14.3581 123.02 14.1961 122.586 14.1961H117.946C117.512 14.1961 117.349 14.3581 117.133 14.7908L107.462 36.0611C107.245 36.4935 107.245 36.7629 107.516 37.0336L109.414 38.9789ZM119.302 18.0867H119.356L124.116 28.9468H114.565L119.302 18.0867ZM23.0675 44.3989C24.9925 44.3986 26.9115 44.1853 28.7895 43.7628V51.2612C28.7809 51.4072 28.8352 51.5498 28.9388 51.6531C29.0423 51.7564 29.1852 51.8103 29.3311 51.8013H33.5916C33.7376 51.8103 33.8806 51.7564 33.9842 51.6532C34.0879 51.5499 34.1424 51.4072 34.1339 51.2612V41.211H40.9687C50.6789 41.211 56.5111 35.7006 56.5111 27.7033C56.5111 20.6266 51.8992 15.4993 44.1526 14.4135C41.4911 6.12266 33.4159 0.09375 23.013 0.09375C10.0477 0.09375 0.5 9.87379 0.5 22.3542C0.5 34.8359 9.72279 44.3989 23.0675 44.3989ZM39.752 17.4924C40.0596 19.0217 40.2128 20.5781 40.2093 22.1381C40.2426 26.1711 39.3127 30.1537 37.4971 33.755C37.3342 34.079 37.3342 34.2952 37.6597 34.511L37.9852 34.7281C38.2567 34.8895 38.4735 34.8359 38.7445 34.5655C42.5419 30.7839 45.0922 26.1373 45.0922 20.4631C45.0906 19.6869 45.0442 18.9115 44.953 18.1406C49.0171 19.5808 51.0592 23.2942 51.0592 27.7033C51.0592 33.3775 47.696 37.9154 40.9687 37.9154H34.1339V17.4924H39.752ZM23.1217 3.3361C30.2056 3.3361 36.1809 7.44288 38.7951 14.1961H24.3153C24.1692 14.1869 24.0263 14.2407 23.9225 14.3438C23.8187 14.4469 23.7641 14.5896 23.7724 14.7357V16.951C23.7637 17.0974 23.8181 17.2404 23.9219 17.3439C24.0257 17.4474 24.1689 17.5015 24.3153 17.4924H28.7895V40.6124C27.2701 40.9725 25.7141 41.1554 24.1527 41.1577C13.6825 41.1577 6.35928 33.1604 6.35928 21.5985C6.35928 11.0076 12.9228 3.3361 23.1217 3.3361ZM48.0729 53.9605V47.0903H46.3198V51.0933L42.6099 47.0903H40.9678V53.9605H42.7197V49.6548L46.6946 53.9605H48.0729ZM80.7088 53.9605H78.9569V47.0903H80.5997L84.309 51.0933V47.0903H86.0621V53.9605H84.684L80.7088 49.6548V53.9605ZM55.8525 53.9606H57.7698L54.4035 47.0904H53.0651L49.6994 53.9606H51.5062L52.0031 52.8487H55.3547L55.8525 53.9606ZM52.6236 51.474L53.6862 49.1249L54.7348 51.474H52.6236ZM59.7968 53.9605H61.6457V48.4921H63.6454V47.0903H57.7958V48.4921H59.7968V53.9605ZM67.2188 47.0904H65.37V53.9606H67.2188V47.0904ZM76.8279 50.5255C76.8279 48.4243 75.3433 46.9254 73.0799 46.9254C70.8176 46.9254 69.3184 48.4243 69.3184 50.5255C69.3184 52.6273 70.8176 54.1257 73.0799 54.1257C75.3433 54.1257 76.8279 52.6273 76.8279 50.5255ZM71.0801 50.5255C71.0801 49.3165 71.8248 48.3817 73.0799 48.3817C74.3355 48.3817 75.0675 49.3165 75.0675 50.5255C75.0675 51.7215 74.3355 52.6693 73.0799 52.6693C71.8248 52.6693 71.0801 51.7215 71.0801 50.5255ZM93.8419 53.9606H95.7588L92.3926 47.0904H91.0547L87.6885 53.9606H89.4958L89.9927 52.8487H93.345L93.8419 53.9606ZM90.6132 51.474L91.6758 49.1249L92.7239 51.474H90.6132ZM102.586 52.5596H99.2488V47.0903H97.3994V53.9605H102.586V52.5596ZM34.4721 67.8541V57.8984H38.6309C41.9695 57.8984 44.2689 59.8693 44.2689 62.8766C44.2689 65.8836 41.9695 67.8541 38.6309 67.8541H34.4721ZM38.6309 66.1232C40.7903 66.1232 42.0295 64.7878 42.0295 62.8766C42.0295 60.9651 40.7903 59.6312 38.6309 59.6312H36.5517V66.1232H38.6309ZM48.7676 66.1025H54.3054V67.8541H46.689V57.8983H54.1059V59.6511H48.7676V61.9007H53.5066V63.6535H48.7676V66.1025ZM62.1036 67.8541H64.1835V64.5101H66.7816C69.1613 64.5101 70.8201 63.2742 70.8201 61.2041C70.8201 59.1532 69.1613 57.8984 66.7816 57.8984H62.1036V67.8541ZM64.1835 59.6312H66.8023C67.941 59.6312 68.581 60.2279 68.581 61.184C68.581 62.1398 67.941 62.777 66.8023 62.777H64.1835V59.6312ZM74.0201 65.9429H79.078L79.9573 67.8541H82.2165L77.3985 57.8984H75.839L71.0411 67.8541H73.1402L74.0201 65.9429ZM76.5588 60.4673L78.2584 64.191H74.8391L76.5588 60.4673ZM92.954 61.2041C92.954 59.1532 91.294 57.8984 88.9155 57.8984H84.2382V67.8541H86.3165V64.5101H88.4959L90.7149 67.8541H93.0935L90.6546 64.2504C92.054 63.793 92.954 62.7176 92.954 61.2041ZM88.935 62.777H86.3165V59.6312H88.935C90.0755 59.6312 90.7149 60.2279 90.7149 61.184C90.7149 62.1398 90.0755 62.777 88.935 62.777ZM95.7935 57.8984H97.8731V67.8541H95.7935V57.8984ZM101.911 65.0864C102.691 65.8836 103.59 66.2815 104.93 66.2815C106.09 66.2815 106.77 65.9429 106.77 65.186C106.77 64.4344 105.801 64.1717 104.65 63.8596C102.966 63.4031 100.892 62.8409 100.892 60.4877C100.892 58.7549 102.251 57.6591 104.79 57.6591C106.262 57.6167 107.684 58.1949 108.709 59.2524L107.35 60.6667C106.679 59.8893 105.697 59.4512 104.67 59.4713C103.551 59.4713 103.071 59.7901 103.071 60.3476C103.071 61.102 104.049 61.374 105.209 61.6964C106.897 62.1657 108.969 62.7418 108.969 65.0676C108.969 66.8984 107.49 68.0938 104.831 68.0938C103.232 68.0938 101.612 67.6355 100.573 66.481L101.911 65.0864Z" fill="white"/>
</svg>